<svg xmlns="http://www.w3.org/2000/svg" width="28.746" height="29" xmlns:v="https://vecta.io/nano"><circle cx="14.373" cy="14.373" r="14.373" fill="#ef233c"/><path d="M25.051 22.979a5.38 5.38 0 0 0-2.236-1.031l-3.975-.8a.9.9 0 0 1-.718-.888v-.912a10.89 10.89 0 0 0 .749-1.334 7.32 7.32 0 0 1 .638-1.118c.878-.763 1.512-1.767 1.823-2.887.205-.718.113-1.489-.256-2.139.037-1.229-.067-2.458-.31-3.663a4 4 0 0 0-.944-2.934 2.8 2.8 0 0 0-1.684-.707c-.211-.026-.418-.075-.618-.145a6.4 6.4 0 0 0-3.061-.8 7.16 7.16 0 0 0-6.3 4.325 10.29 10.29 0 0 0-.248 3.266l-.024.654a2.9 2.9 0 0 0-.237 2.139c.312 1.127.951 2.136 1.836 2.9.242.353.454.725.636 1.113a11.26 11.26 0 0 0 .754 1.329v.912a.9.9 0 0 1-.721.888l-3.978.8c-.811.168-1.573.52-2.226 1.03a.91.91 0 0 0-.107 1.319 14.43 14.43 0 0 0 21.315 0 .91.91 0 0 0-.107-1.319z" fill="#303030"/></svg>